<svg width="42" height="41" viewBox="0 0 42 41" fill="none" xmlns="http://www.w3.org/2000/svg">
<rect x="0.041748" width="41" height="41" rx="10" fill="white"/>
<path fill-rule="evenodd" clip-rule="evenodd" d="M14.848 2.13542C13.3668 2.13433 11.9238 2.60475 10.7278 3.47856C9.53187 4.35237 8.64514 5.5842 8.19604 6.99563C7.74694 8.40706 7.75879 9.9248 8.22989 11.329C8.70098 12.7333 9.60686 13.9511 10.8163 14.8061C9.9059 15.4505 9.16342 16.3039 8.65124 17.2946C8.13905 18.2854 7.87211 19.3847 7.87285 20.5C7.87285 22.8507 9.03622 24.9314 10.8197 26.1939C9.84268 26.8855 9.06007 27.8169 8.54719 28.8985C8.03432 29.9802 7.80843 31.1756 7.89128 32.3697C7.97412 33.5639 8.3629 34.7167 9.02022 35.7171C9.67753 36.7176 10.5813 37.532 11.6444 38.0821C12.7076 38.6322 13.8945 38.8994 15.0908 38.858C16.2872 38.8166 17.4527 38.468 18.4753 37.8458C19.498 37.2236 20.3433 36.3486 20.9299 35.3052C21.5165 34.2617 21.8247 33.0848 21.8248 31.8878V25.9018C22.5505 26.4897 23.3868 26.9258 24.2842 27.1844C25.1816 27.443 26.1218 27.5188 27.049 27.4072C27.9762 27.2956 28.8716 26.999 29.682 26.5348C30.4924 26.0707 31.2014 25.4486 31.7669 24.7053C32.3323 23.962 32.7428 23.1128 32.9738 22.2079C33.2049 21.303 33.2519 20.361 33.1121 19.4376C32.9722 18.5142 32.6484 17.6283 32.1597 16.8324C31.6711 16.0366 31.0276 15.3469 30.2674 14.8044C31.4768 13.9494 32.3827 12.7316 32.8538 11.3273C33.3249 9.9231 33.3368 8.40535 32.8877 6.99392C32.4386 5.58249 31.5518 4.35066 30.3559 3.47685C29.1599 2.60304 27.7169 2.13262 26.2357 2.13371L14.848 2.13542ZM19.2606 24.9126H14.848C14.2685 24.9126 13.6947 24.7985 13.1593 24.5767C12.624 24.355 12.1375 24.03 11.7278 23.6202C11.318 23.2105 10.993 22.724 10.7712 22.1886C10.5495 21.6533 10.4353 21.0795 10.4353 20.5C10.4353 19.9205 10.5495 19.3467 10.7712 18.8114C10.993 18.276 11.318 17.7896 11.7278 17.3798C12.1375 16.9701 12.624 16.645 13.1593 16.4233C13.6947 16.2015 14.2685 16.0874 14.848 16.0874H19.2606V24.9126ZM14.848 13.5249H19.2606V4.69792H14.848C13.6774 4.69792 12.5549 5.16291 11.7272 5.9906C10.8995 6.81829 10.4345 7.94088 10.4345 9.1114C10.4345 10.2819 10.8995 11.4045 11.7272 12.2322C12.5549 13.0599 13.6774 13.5249 14.848 13.5249ZM30.6501 9.11055C30.6505 10.2803 30.1865 11.4023 29.36 12.23C28.5336 13.0578 27.4123 13.5235 26.2426 13.5249H21.8231V4.69792H26.2374C26.8169 4.69792 27.3907 4.81206 27.9261 5.03381C28.4614 5.25557 28.9479 5.5806 29.3576 5.99035C29.7674 6.4001 30.0924 6.88655 30.3142 7.42191C30.5359 7.95727 30.6501 8.53107 30.6501 9.11055ZM21.8231 20.4949C21.8245 19.3264 22.2892 18.2061 23.1155 17.3798C23.9418 16.5535 25.0621 16.0887 26.2306 16.0874H26.2408C27.1131 16.0884 27.9656 16.3479 28.6904 16.8332C29.4153 17.3184 29.9801 18.0076 30.3134 18.8137C30.6468 19.6198 30.7337 20.5066 30.5633 21.3621C30.3929 22.2176 29.9727 23.0034 29.3559 23.6202C28.7391 24.237 27.9533 24.6572 27.0978 24.8276C26.2423 24.998 25.3555 24.9111 24.5494 24.5777C23.7434 24.2444 23.0541 23.6796 22.5689 22.9547C22.0836 22.2299 21.8241 21.3774 21.8231 20.5051V20.4949ZM14.848 27.4751C13.9753 27.4751 13.1222 27.7339 12.3966 28.2187C11.671 28.7035 11.1054 29.3925 10.7714 30.1987C10.4374 31.0049 10.3499 31.8921 10.52 32.748C10.6901 33.6039 11.1102 34.3902 11.7272 35.0074C12.3441 35.6245 13.1302 36.0449 13.9861 36.2154C14.8419 36.3858 15.7291 36.2987 16.5354 35.965C17.3418 35.6313 18.031 35.0659 18.5161 34.3405C19.0012 33.6151 19.2603 32.7621 19.2606 31.8895V27.4751H14.848Z" fill="#172039"/>
</svg>
