<svg width="41" height="41" viewBox="0 0 41 41" fill="none" xmlns="http://www.w3.org/2000/svg">
<rect width="41" height="41" rx="10" fill="white"/>
<path d="M20.5 3.83862C16.4435 3.83853 12.5192 5.28196 9.42961 7.91062C6.33998 10.5393 4.28657 14.1816 3.63684 18.1858C2.98712 22.19 3.78348 26.2947 5.88341 29.7654C7.98335 33.2361 11.2498 35.8463 15.0983 37.1289C15.9524 37.2792 16.2719 36.7668 16.2719 36.3175C16.2719 35.9126 16.2514 34.5664 16.2514 33.1365C11.9583 33.9258 10.8479 32.0893 10.5063 31.1292C10.127 30.1945 9.52605 29.3661 8.75522 28.7154C8.1573 28.3959 7.30314 27.605 8.73301 27.5845C9.27952 27.6434 9.80372 27.8334 10.2611 28.1383C10.7185 28.4431 11.0956 28.8538 11.3604 29.3355C11.594 29.7552 11.9081 30.1247 12.2847 30.4228C12.6614 30.7209 13.0931 30.9417 13.5553 31.0726C14.0174 31.2035 14.5008 31.242 14.9778 31.1857C15.4549 31.1295 15.9161 30.9797 16.3351 30.7449C16.4085 29.8758 16.7959 29.0632 17.425 28.4591C13.624 28.032 9.6521 26.5595 9.6521 20.0251C9.62928 18.3272 10.2556 16.6847 11.4031 15.4331C10.882 13.9573 10.9431 12.3383 11.574 10.906C11.574 10.906 13.0038 10.4584 16.2719 12.657C19.0672 11.8885 22.0182 11.8885 24.8136 12.657C28.0799 10.4362 29.5115 10.906 29.5115 10.906C30.1424 12.3383 30.2035 13.9573 29.6823 15.4331C30.8344 16.6819 31.4614 18.3263 31.4333 20.0251C31.4333 26.58 27.4393 28.032 23.6399 28.4591C24.0471 28.8726 24.3607 29.3688 24.5594 29.9141C24.758 30.4594 24.8371 31.041 24.7913 31.6195C24.7913 33.9053 24.7708 35.7418 24.7708 36.3175C24.7708 36.7668 25.0903 37.2997 25.9445 37.1289C29.7858 35.8356 33.0426 33.2192 35.1333 29.7468C37.224 26.2744 38.0127 22.172 37.3585 18.1719C36.7043 14.1718 34.6498 10.5343 31.5618 7.90886C28.4738 5.28341 24.5533 3.84083 20.5 3.83862Z" fill="#172039"/>
</svg>
