<svg width="42" height="41" viewBox="0 0 42 41" fill="none" xmlns="http://www.w3.org/2000/svg">
<rect x="0.083252" width="41" height="41" rx="10" fill="white"/>
<path fill-rule="evenodd" clip-rule="evenodd" d="M9.84819 9.40609C10.9108 10.2705 11.3088 10.2039 13.3041 10.0723L32.118 8.94142C32.5161 8.94142 32.1846 8.54338 32.0514 8.47675L28.9269 6.21834C28.3289 5.75367 27.5311 5.22238 26.0022 5.35392L7.78623 6.683C7.11998 6.74963 6.98844 7.08104 7.25323 7.34925L9.84819 9.40609ZM10.9757 13.7914V33.5858C10.9757 34.6484 11.5087 35.0465 12.7045 34.9815L33.3805 33.7857C34.5763 33.7191 34.7113 32.9879 34.7113 32.1235V12.4606C34.7113 11.5996 34.3799 11.1332 33.647 11.1998L12.04 12.4623C11.2422 12.5289 10.9757 12.927 10.9757 13.7914ZM31.3886 14.8523C31.5218 15.4502 31.3886 16.0481 30.7906 16.1164L29.793 16.3146V30.9294C28.9286 31.394 28.1308 31.6588 27.4662 31.6588C26.4019 31.6588 26.1354 31.3274 25.3394 30.3315L18.8221 20.102V29.9983L20.884 30.4647C20.884 30.4647 20.884 31.6605 19.2218 31.6605L14.6349 31.9253C14.5017 31.6588 14.6349 30.996 15.0996 30.8628L16.2954 30.5313V17.4455L14.6349 17.3105C14.5017 16.7126 14.8331 15.8499 15.7659 15.7833L20.6859 15.4519L27.4679 25.8146V16.6477L25.7374 16.4495C25.6041 15.7167 26.1354 15.1854 26.8017 15.1205L31.3886 14.8523ZM6.25727 4.88925L25.2027 3.49525C27.5311 3.29538 28.1291 3.42863 29.5931 4.49121L35.6406 8.74155C36.6383 9.47271 36.9714 9.67259 36.9714 10.4687V33.7857C36.9714 35.2463 36.4384 36.109 34.578 36.2423L12.5747 37.5714C11.1756 37.6397 10.511 37.4398 9.77985 36.5088L5.32623 30.7295C4.52844 29.6652 4.19531 28.8691 4.19531 27.9381V7.21429C4.19531 6.01846 4.72831 5.0225 6.25556 4.89096" fill="#172039"/>
</svg>
