<svg width="1920" height="1080" viewBox="0 0 1920 1080" fill="none" xmlns="http://www.w3.org/2000/svg">
<g filter="url(#filter0_d_1344_2271)">
<path d="M360 181.304C360 178.426 362.277 176.134 365.149 176.298C411.474 178.957 760.112 198.433 992 196C1198.33 193.835 1511.45 178.434 1554.93 176.256C1557.78 176.113 1560 178.4 1560 181.262V890.718C1560 893.587 1557.76 895.878 1554.9 895.724C1510.52 893.336 1186.61 876.221 980 874C748.365 871.51 410.776 892.716 365.167 895.663C362.281 895.849 360 893.549 360 890.657V181.304Z" fill="white" fill-opacity="0.7" shape-rendering="crispEdges"/>
</g>
<g filter="url(#filter1_f_1344_2271)">
<rect x="400" y="318" width="1123" height="431" fill="white"/>
</g>
<defs>
<filter id="filter0_d_1344_2271" x="340" y="166.25" width="1240" height="759.481" filterUnits="userSpaceOnUse" color-interpolation-filters="sRGB">
<feFlood flood-opacity="0" result="BackgroundImageFix"/>
<feColorMatrix in="SourceAlpha" type="matrix" values="0 0 0 0 0 0 0 0 0 0 0 0 0 0 0 0 0 0 127 0" result="hardAlpha"/>
<feMorphology radius="10" operator="dilate" in="SourceAlpha" result="effect1_dropShadow_1344_2271"/>
<feOffset dy="10"/>
<feGaussianBlur stdDeviation="5"/>
<feComposite in2="hardAlpha" operator="out"/>
<feColorMatrix type="matrix" values="0 0 0 0 0 0 0 0 0 0 0 0 0 0 0 0 0 0 0.7 0"/>
<feBlend mode="normal" in2="BackgroundImageFix" result="effect1_dropShadow_1344_2271"/>
<feBlend mode="normal" in="SourceGraphic" in2="effect1_dropShadow_1344_2271" result="shape"/>
</filter>
<filter id="filter1_f_1344_2271" x="-100" y="-182" width="2123" height="1431" filterUnits="userSpaceOnUse" color-interpolation-filters="sRGB">
<feFlood flood-opacity="0" result="BackgroundImageFix"/>
<feBlend mode="normal" in="SourceGraphic" in2="BackgroundImageFix" result="shape"/>
<feGaussianBlur stdDeviation="250" result="effect1_foregroundBlur_1344_2271"/>
</filter>
</defs>
</svg>
